<svg width="1035" height="1256" xmlns="http://www.w3.org/2000/svg" xmlns:xlink="http://www.w3.org/1999/xlink" overflow="hidden"><defs><clipPath id="clip0"><rect x="1790" y="525" width="1035" height="1256"/></clipPath></defs><g clip-path="url(#clip0)" transform="translate(-1790 -525)"><path d="M1799 1237.5C1799 1015.76 1978.53 836 2200 836 2421.47 836 2601 1015.76 2601 1237.5 2601 1459.24 2421.47 1639 2200 1639 1978.53 1639 1799 1459.24 1799 1237.5Z" stroke="#000000" stroke-width="18.3333" stroke-miterlimit="8" fill="none" fill-rule="evenodd"/><path d="M1958 1237.5C1958 942.304 2066.57 703 2200.5 703 2334.43 703 2443 942.304 2443 1237.5 2443 1532.7 2334.43 1772 2200.5 1772 2066.57 1772 1958 1532.7 1958 1237.5Z" stroke="#000000" stroke-width="18.3333" stroke-miterlimit="8" fill="none" fill-rule="evenodd"/><path d="M2392.88 576.477C2397.57 576.477 2401.61 576.86 2405.01 577.626L2402.21 589.828 2395.89 589.828C2395.22 587.1 2394.35 585.138 2393.27 583.942 2392.19 582.746 2390.6 582.148 2388.5 582.148 2385.77 582.148 2383.46 582.901 2381.57 584.409 2379.68 585.916 2378.07 588.153 2376.73 591.12 2375.39 594.087 2374.14 598.082 2372.99 603.107L2371.2 610.93 2389.65 610.93 2388.07 618.18 2369.55 618.18 2356.2 680.77C2354 691.154 2350.62 698.893 2346.08 703.99 2341.53 709.086 2335.81 711.634 2328.92 711.634 2326.91 711.634 2325.33 711.514 2324.18 711.275L2325.41 704.959C2325.88 705.102 2327.01 705.174 2328.78 705.174 2330.93 705.174 2332.77 704.624 2334.31 703.523 2335.84 702.423 2337.26 700.508 2338.58 697.781 2339.89 695.053 2341.1 691.273 2342.2 686.44L2357.63 618.18 2345.5 618.18 2346.58 613.227C2349.79 613.036 2352.09 612.773 2353.51 612.438 2354.92 612.103 2356.02 611.6 2356.81 610.93 2357.6 610.26 2358.27 609.387 2358.82 608.31 2359.37 607.234 2360.07 605.26 2360.93 602.389 2363.47 593.776 2367.38 587.304 2372.67 582.973 2377.96 578.643 2384.69 576.477 2392.88 576.477Z" fill-rule="evenodd"/><text fill="#000000" fill-opacity="0" font-family="Arial,Arial_MSFontService,sans-serif" font-size="135.157" x="2324.18" y="694.739">𝑓</text><path d="M2414.32 641.82C2417.94 641.82 2421.03 642.229 2423.59 643.048 2426.15 643.866 2428.23 644.972 2429.83 646.365 2431.44 647.759 2432.59 649.431 2433.31 651.381 2434.02 653.332 2434.38 655.439 2434.38 657.703 2434.38 659.061 2434.28 660.324 2434.09 661.491 2433.9 662.657 2433.57 663.807 2433.1 664.939 2432.63 666.071 2432.01 667.212 2431.24 668.361 2430.48 669.51 2429.52 670.729 2428.37 672.018 2427.5 673.133 2426.37 674.422 2424.98 675.884 2423.58 677.347 2422.06 678.915 2420.4 680.587 2418.75 682.258 2417.02 684 2415.21 685.811 2413.39 687.622 2411.64 689.416 2409.93 691.193 2408.22 692.969 2406.65 694.693 2405.23 696.365 2403.8 698.037 2402.63 699.569 2401.73 700.963L2421.06 700.963C2422.69 700.963 2424 700.902 2424.98 700.78 2425.95 700.658 2426.76 700.388 2427.4 699.97 2428.05 699.552 2428.6 698.916 2429.05 698.063 2429.5 697.21 2430.03 696.034 2430.62 694.536L2435.48 694.536C2435.3 697.009 2435.14 699.5 2434.98 702.008 2434.82 704.515 2434.66 707.006 2434.48 709.479L2390.23 709.479 2390.23 706.762C2391.07 704.881 2392.04 703.026 2393.16 701.198 2394.27 699.369 2395.53 697.514 2396.92 695.633 2398.31 693.753 2399.9 691.811 2401.67 689.808 2403.45 687.805 2405.42 685.724 2407.58 683.565 2410.85 680.291 2413.52 677.495 2415.57 675.179 2417.63 672.863 2419.25 670.799 2420.43 668.988 2421.61 667.177 2422.42 665.505 2422.86 663.972 2423.29 662.44 2423.51 660.803 2423.51 659.061 2423.51 657.285 2423.26 655.648 2422.75 654.15 2422.25 652.652 2421.53 651.381 2420.59 650.336 2419.65 649.291 2418.45 648.473 2417.01 647.881 2415.56 647.288 2413.9 646.992 2412.02 646.992 2408.78 646.992 2406.06 647.872 2403.87 649.631 2401.67 651.39 2399.97 653.941 2398.75 657.285L2391.9 657.285 2391.9 647.097C2396.36 645.251 2400.46 643.91 2404.21 643.074 2407.95 642.238 2411.32 641.82 2414.32 641.82Z" fill-rule="evenodd"/><text fill="#000000" fill-opacity="0" font-family="Arial,Arial_MSFontService,sans-serif" font-size="67.6587" x="2390.23" y="701.021">2</text><path d="M2719.24 1183.41C2723.93 1183.41 2727.97 1183.79 2731.37 1184.56L2728.57 1196.76 2722.26 1196.76C2721.59 1194.03 2720.71 1192.07 2719.64 1190.88 2718.56 1189.68 2716.97 1189.08 2714.86 1189.08 2712.13 1189.08 2709.83 1189.84 2707.94 1191.34 2706.05 1192.85 2704.43 1195.09 2703.09 1198.05 2701.75 1201.02 2700.51 1205.02 2699.36 1210.04L2697.56 1217.86 2716.01 1217.86 2714.43 1225.11 2695.91 1225.11 2682.56 1287.7C2680.36 1298.09 2676.99 1305.83 2672.44 1310.92 2667.9 1316.02 2662.18 1318.57 2655.29 1318.57 2653.28 1318.57 2651.7 1318.45 2650.55 1318.21L2651.77 1311.89C2652.25 1312.04 2653.37 1312.11 2655.14 1312.11 2657.3 1312.11 2659.14 1311.56 2660.67 1310.46 2662.2 1309.36 2663.63 1307.44 2664.94 1304.71 2666.26 1301.99 2667.47 1298.21 2668.57 1293.37L2684 1225.11 2671.87 1225.11 2672.94 1220.16C2676.15 1219.97 2678.46 1219.71 2679.87 1219.37 2681.28 1219.04 2682.38 1218.53 2683.17 1217.86 2683.96 1217.19 2684.63 1216.32 2685.18 1215.24 2685.73 1214.17 2686.44 1212.19 2687.3 1209.32 2689.84 1200.71 2693.75 1194.24 2699.04 1189.91 2704.32 1185.58 2711.06 1183.41 2719.24 1183.41Z" fill-rule="evenodd"/><text fill="#000000" fill-opacity="0" font-family="Arial,Arial_MSFontService,sans-serif" font-size="135.157" x="2650.55" y="1301.67">𝑓</text><path d="M2741.37 1249.12 2744.55 1249.12C2744.48 1251.04 2744.43 1252.75 2744.4 1254.27 2744.36 1255.78 2744.33 1257.25 2744.32 1258.68 2744.3 1260.11 2744.29 1261.52 2744.29 1262.91L2744.29 1302.62C2744.29 1303.7 2744.33 1304.63 2744.4 1305.41 2744.47 1306.2 2744.58 1306.86 2744.74 1307.4 2744.89 1307.94 2745.1 1308.4 2745.36 1308.78 2745.62 1309.17 2745.93 1309.5 2746.28 1309.78 2746.69 1310.2 2747.25 1310.52 2747.95 1310.74 2748.65 1310.97 2749.53 1311.16 2750.61 1311.32 2751.69 1311.48 2752.99 1311.6 2754.51 1311.68 2756.02 1311.77 2757.84 1311.83 2759.97 1311.87L2759.97 1316.41 2718.53 1316.41 2718.53 1311.87C2720.59 1311.8 2722.33 1311.72 2723.76 1311.63 2725.19 1311.55 2726.41 1311.42 2727.42 1311.27 2728.43 1311.11 2729.24 1310.94 2729.85 1310.74 2730.45 1310.55 2730.99 1310.32 2731.44 1310.04 2731.93 1309.73 2732.34 1309.39 2732.69 1309.02 2733.04 1308.65 2733.32 1308.19 2733.53 1307.64 2733.74 1307.08 2733.9 1306.4 2734.02 1305.6 2734.15 1304.8 2734.21 1303.8 2734.21 1302.62L2734.21 1265.16C2734.21 1263.8 2733.95 1262.84 2733.42 1262.29 2732.9 1261.73 2732.15 1261.45 2731.18 1261.45 2730.1 1261.45 2728.5 1262.01 2726.37 1263.12 2724.25 1264.24 2721.49 1265.89 2718.12 1268.09 2717.66 1267.28 2717.25 1266.48 2716.86 1265.68 2716.48 1264.88 2716.08 1264.06 2715.66 1263.23 2719.98 1260.86 2724.25 1258.5 2728.49 1256.15 2732.72 1253.8 2737.01 1251.45 2741.37 1249.12Z" fill-rule="evenodd"/><text fill="#000000" fill-opacity="0" font-family="Arial,Arial_MSFontService,sans-serif" font-size="67.293" x="2715.66" y="1308">1</text></g></svg>